<?xml version="1.0" encoding="UTF-8"?>
<svg xmlns="http://www.w3.org/2000/svg" version="1.1" viewBox="0 0 185.1 133">
  <defs>
    <style>
      .cls-1 {
        fill: #fff;
      }
    </style>
  </defs>
  <!-- Generator: Adobe Illustrator 28.7.1, SVG Export Plug-In . SVG Version: 1.2.0 Build 142)  -->
  <g>
    <g id="Layer_1">
      <path class="cls-1" d="M185,133H36C13.3,129.9-2.5,109.1.6,86.4c2.5-18.3,16.8-32.7,35-35.4,6.5-1,12.5-1,19.5-.1V0h95c16,0,27,12.8,32.2,25.5,2.5,6,3.6,12.3,2.3,18.9h-10c2.9-11.4-1.3-19.4-11.1-19.9-11.5-.6-23-.6-34.5,0-8.7.5-13.6,8.3-11.5,16.8l.7,3.2c-15.2-1-26.3-8.2-35-21v47.8c9.8-14.4,22.2-21.7,37.7-21.3,16.4.4,28.3,8.6,37.8,21.8v-21h26.2v82.2ZM159.6,89.9h-18.7c-3.9,0-6.5-.4-8.2-4.8-2.6-6.3-10.1-8.9-16.5-6.9s-10.6,8.2-10,14.5c.6,6.5,5.5,12.7,11.4,12.7h39c2,0,2.9-1,2.9-2.3v-13.2h.1ZM55.5,92.7c.3-7.8-5.7-14.5-13.6-14.8-7.8-.3-14.5,5.7-14.8,13.6h0c-.3,7.8,5.7,14.5,13.6,14.8,7.8.3,14.5-5.7,14.8-13.6ZM131.6,44.7c-4.8-.1-8-3-8-7.1s3-7.1,7.9-7.2h29.9c4.9,0,7.8,3,7.7,7.3s-3,6.9-8,7h-29.4Z"/>
    </g>
  </g>
</svg>