<?xml version="1.0" encoding="UTF-8"?>
<svg id="Layer_2" xmlns="http://www.w3.org/2000/svg" version="1.1" viewBox="0 0 1320 695">
  <!-- Generator: Adobe Illustrator 29.1.0, SVG Export Plug-In . SVG Version: 2.1.0 Build 142)  -->
  <defs>
    <style>
      .st0 {
        fill: #fff;
      }
    </style>
  </defs>
  <g id="Layer_1-2">
    <g>
      <path class="st0" d="M1,262c37.5,0,75,0,112.5,0,8.4,0,8.2,0,8.6,8.2,1.5,30.1,3.2,60.2,4.8,90.2.8,15,1.4,29.9,2.1,44.9.6,12,1.3,23.9,1.9,36,2.4-.5,2.5-2.2,3-3.5,23.1-53.2,46.1-106.4,69.1-159.6.9-2.1,2.3-4.2,2.8-6.4,2-8.4,7.3-10.2,15.5-10.1,33,.4,66,.2,99,.1,4.6,0,7,.9,7.1,6.2.2,10.3,1.1,20.6,1.5,30.9,1.1,29.6,2.2,59.2,3.3,88.9.6,15.8,1.3,31.6,2,47.4,0,2-.4,4.3,1.8,6.4,5-11.4,9.9-22.4,14.7-33.5,20.6-47.2,41.2-94.3,61.8-141.6,1.5-3.5,3.6-4.7,7.2-4.7,39.7,0,79.3,0,119,0,5.5,0,6,.9,3.3,5.9-20.6,39.4-41.3,78.8-61.9,118.2-14.6,27.9-29,55.9-43.6,83.8-18.9,36.3-38,72.6-56.9,109-1.6,3.1-3.6,4.2-7.1,4.2-39.2,0-78.3-.1-117.5,0-4.6,0-6-1.7-6.1-6.1-.6-27.3-1.2-54.6-2.2-81.9-1.2-30.1-2.3-60.2-3-90.4,0-2.1,0-4.3-1.5-6.6-3.1,4.6-4.8,9.7-6.9,14.4-22.4,50.4-44.6,100.9-66.9,151.3-2.1,4.9-4.4,9.7-6.4,14.7-1.3,3.2-3.3,4.5-6.8,4.5-39,0-78-.1-117,0-4.3,0-5.9-1.8-6.3-5.8-3.4-34.8-6.7-69.6-10.2-104.4-2.8-28-5.9-56-8.6-83.9-2.9-28.6-5.4-57.3-8.4-86-1.1-10.7-1.4-21.6-3.7-32.2v-9h0Z"/>
      <path class="st0" d="M623,695c-9.4-1.3-18.8-2.3-28.1-4-23.9-4.3-46.5-11.8-65.5-27.7-17.2-14.4-26.6-32.9-29.3-55-.6-4.8-.6-9.6-1.1-14.4-.4-4.6,1.6-6,6.1-6,26.7.2,53.3,0,80,0s20.3.1,30.5,0c4.1,0,5.4,1.4,5.6,5.5.9,17,9.5,26.3,26.4,28.3,7.4.9,15,1.1,22.4-.3,16.2-3,26.4-13.3,32.7-28,6.9-16.1,9.3-33.3,13.2-50.2.7-3.1,1.3-6.1,2.2-10.3-3.2,2.7-5.5,4.8-7.9,6.8-19.5,16.6-42.2,24.2-67.6,24.5-26.5.3-51.7-4.6-74.5-18.9-29.8-18.7-46.2-46.6-50.7-80.6-7-52.1,3.6-100.9,32.7-144.9,22.4-33.8,53.2-56.3,93.9-63.1,28.6-4.7,56.8-3.4,83.5,9.4,15.5,7.5,27.3,18.9,35.7,33.9.5,1,.8,2.2,2.9,2.9,1.3-6.3,2.6-12.5,3.9-18.8,1.1-5.7,2.2-11.4,3.2-17.2.6-3.4,2.2-4.8,5.7-4.8,36.2,0,72.3,0,108.5,0,4.7,0,5,2.2,4.2,6.1-11,53.4-21.8,106.7-32.9,160.1-9.7,46.8-18.4,93.8-29.4,140.4-5.5,23.1-13.1,45.5-26.4,65.5-17.5,26.4-42.5,42.2-72.3,51.1-17.3,5.2-35,8-53.1,9-1.5,0-2.9.6-4.4.9h-50ZM746.9,392.9c0-3.7.3-7.4,0-11-1.2-14-6-26.2-19.4-32.7-13.3-6.4-27.3-7-41.5-2.9-14.7,4.2-25.5,13.8-32.6,27-13.7,25.6-19.5,52.8-12.2,81.5,4,15.9,14,27.3,30.8,29.7,21.1,3.1,39.4-3.4,52.8-20.5,16.4-20.8,21.7-45.3,22.1-71.2h0Z"/>
      <path class="st0" d="M1320,471c-1.5,10.4-2.4,20.8-4.8,31-6.3,27.9-17.9,52.9-38.7,73.2-6.2,6.1-12.8,9.2-22.1,9.1-40.5-.5-81-.2-121.5-.3-1.9,0-3.9.4-6.6-1.1,40.3-16.8,73.1-41.7,96.4-77.9-.3-.4-.7-.8-1-1.2-4.7,4.1-9.4,8.2-14.2,12.2-21.5,18-43.9,34.8-69.2,47.2-13.7,6.7-27.7,12.4-42.9,14.3-4.9.6-9.7.3-14.4-.9-12-3.2-17.2-13.7-13-25.8,3.9-11.2,11.2-20.4,18.7-29.4,5.4-6.5,11.5-12.5,17.4-18.6,2.6-2.7,4.7-2.9,7.7-.8,3.3,2.3,7,4.2,11.1,5.4-3.4-2.5-6.7-5.2-10.1-7.6-2.4-1.7-2.5-3.1-.3-5.1,25.4-24,53.8-42.5,89-48.6,10.8-1.9,21.5-2,32.2.9,1.6.4,3.8.6,4.2,2.3.4,1.9-1.8,2.6-3.1,3.5-22.5,17.2-45,34.4-67.1,52.3,1.7-1,3.4-1.9,5.1-3,23.1-14.3,46.2-28.5,69.3-42.8,6.7-4.1,8-3.7,10.2,3.9,3.6,12.2,1.8,24.4-.8,36.6-4.3,20.3-12.1,39.5-20.3,58.4-.2.6-.4,1.2-.4,2,5.1-6.8,9-14.4,12.9-21.9,10.5-20,20.1-40.3,23.4-62.9,1.3-8.8,1.6-17.7-2.7-25.9-1.8-3.5.7-4.4,2.8-5.7,13.6-8.4,27.2-16.8,40.9-25.2,1-.6,2-1.2,3-1.8,3.2-2.1,3.3-4.3.2-6.6-12.6-9.6-8.6-8.8-20.6,0-10.9,8-21.6,16.2-32.1,24.6-3.6,2.9-5.6,2.5-8.3-1.2-37.9-50.5-76-100.9-114-151.3-11.3-15-22.6-30.1-34-45.1-2.3-3-2.2-4.4,1.2-6.5,34.1-20.7,70.8-33.7,110.6-38.3,13.9-1.6,27.8-3.2,41.8-2.9,2.8,0,4.7.5,5.4,3.7,10.9,49.3,26.8,97.3,39.7,146.1,6.9,26.1,13,52.4,16.6,79.2.9,6.4,1.6,12.9,2.3,19.3v33h0Z"/>
      <path class="st0" d="M1266,1c6.9,1.6,13.9.4,20.9.8,1,0,2.2-.3,2.7.8.6,1.1-.5,1.8-1.1,2.6-17.1,22.2-26,47.8-31.2,74.9-1.2,6.4-1.3,6.6-7,3.3-32.9-19-68.1-29.6-106.3-28-18.5.8-36.5,5.3-54.6,9.4-21.1,4.8-41.9,10.8-63.2,14.8-12.1,2.3-22.8-.9-32.9-6.8-7.5-4.4-14.7-9.2-22-13.7-2.1-1.3-3.5-2.8-2.6-5.7,5.9-17.8,13.5-34.8,25.4-49.5.8-1,1.9-1.8,2.9-2.7h269,0Z"/>
      <path class="st0" d="M1320,599c-4,7.4-9.3,13-18.5,13.2-10.2.2-18.4-6.5-20.3-16.4-1.7-9.1,3.7-18.7,12.4-22.2,9.2-3.6,18.9-.2,24.2,8.5.8,1.3,1.4,2.6,2.2,3.9v13h0ZM1315.8,592.1c0-8.6-6.7-15.8-14.7-15.8-8.2,0-15,7.2-15,16.1,0,9.3,6.3,15.7,15.2,15.6,8.4,0,14.6-6.8,14.5-15.8h0Z"/>
      <path class="st0" d="M1235.1,429.8c-2.9-.2-5.5-.5-8-.6-23.7-1.6-45.4,5.5-66.5,15.2-22,10-41.7,23.6-60.2,39-3.4,2.8-5.7,3.2-9.4.4-23.7-18.1-47.6-36-71.4-53.9-13-9.8-26.2-19.4-39.2-29.4-3.6-2.8-5.7-2-8.2,1.1-8.6,10.4-8.7,10.3,2.8,17.3,37.2,22.6,74.3,45.2,111.5,67.8,5.4,3.3,5.5,3.6.4,8-16.3,14.1-31.5,29.2-44.3,46.6-7.5,10.2-14.3,21-15.8,34.1,0,.5-.2,1-.3,1.5-.4,4.9-3.1,7.3-8,7.3-13.7,0-27.3.5-41-.1-34.8-1.6-69.6-.3-104.4-.8-5.7,0-6-.4-4.8-6.1,11.3-54.5,22.7-108.9,34-163.4,9.9-47.6,19.8-95.2,29.7-142.9,1.8-8.7,1.8-8.7,10.9-8.7,9.7,0,19.3,0,29,0,4,0,5.4-1.1,4.4-5.4-1.9-7.9-3.6-15.9-5-24-.6-3.6-2.4-4.7-5.8-4.6-6.2.1-12.3,0-18.5,0-6.1,0-6.5-.5-5.2-6.3,4.8-23.3,9.7-46.7,14.6-70,1.1-5.2,1.7-10.5,1.6-15.9-.3-11.3,0-22.7,1-33.9.2-2.2-.1-5.3,1.6-6,2.5-.9,3.6,2.3,5,4,9.7,11.7,19.4,23.3,28.7,35.2,3.7,4.7,7.6,6.9,13.8,6.8,22.2-.4,44.3-.2,66.5-.1,6.5,0,6.8.6,5.5,7-4.6,22-9.1,44-13.8,66-.9,4.4,0,7.8,2.9,11.4,54.6,66.2,109.1,132.5,163.5,198.7,1,1.2,2.2,2.5,2.5,4.7h0Z"/>
      <path class="st0" d="M215.8,635.2c0-8.5.2-17,0-25.5-.1-4.2,1.2-6.1,5.7-5.9,11.1.5,22.3-1,33.4,1,11.3,2,17,9.6,15.5,20-.7,5-3.2,8.8-7.5,11.2-2.8,1.6-3.2,3.2-2,6,2.9,6.6,5.4,13.3,8.2,19.9,1.4,3.4.6,5.1-3.2,4.9-.3,0-.7,0-1,0-9.5.2-15.9-4.1-19-13-1.2-3.3-2.4-6.6-3.5-9.9-.9-2.6-2.8-3-5.1-2.8-2.9.2-2.8,2.3-2.8,4.4,0,5.5-.1,11,0,16.5,0,3.4-1.3,4.8-4.7,4.8-16.7,0-13.4,1.5-13.7-12.7-.1-6.3,0-12.7,0-19h0ZM241.6,617v.2c-1.5,0-3,0-4.5,0-2.4,0-3.1,1.7-2.9,3.8.3,2.6-1.6,6.5,1.9,7.4,3.9,1.1,8.3,1,12.1-1.4,1.8-1.1,2.7-2.9,2.4-5.1-.3-2.4-1.8-3.9-4.1-4.5-1.6-.4-3.3-.3-4.9-.5h0Z"/>
      <path class="st0" d="M1136.9,603.9c5.3.2,11.7-.5,17.9.8,7.5,1.5,14,4.4,15.9,12.4,2,8.2,0,15.3-8,19.6-2.8,1.5-1.8,3.5-1,5.5,2.7,6.6,5.2,13.3,8.1,19.9,1.6,3.7.4,5-3.3,4.8-.3,0-.7,0-1,0-9.5.2-15.8-4.1-19.1-13-1.1-3.1-2.3-6.3-3.3-9.4-.8-2.8-2.8-3.5-5.4-3.2-2.9.3-2.7,2.5-2.7,4.5,0,5.3-.1,10.7,0,16,.1,3.5-1.1,5.3-4.8,5.2-16.6-.1-13.4,1.5-13.6-12.8-.2-14.8,0-29.6-.1-44.5,0-4.3,1.3-6.1,5.7-5.8,4.5.3,9,0,14.5,0h0ZM1142.6,617v.2c-1.5,0-3,0-4.5,0-2.4,0-3.1,1.8-2.9,3.8.3,2.6-1.6,6.5,1.9,7.4,3.9,1.1,8.3,1,12.1-1.4,1.8-1.1,2.8-2.9,2.4-5.1-.3-2.4-1.8-3.9-4.1-4.5-1.6-.4-3.3-.3-4.9-.5h0Z"/>
      <path class="st0" d="M902.9,635.4c0-8.7.1-17.3,0-26,0-4,1.3-5.7,5.5-5.6,16.1.3,13.5-1.9,13.7,13.3.1,9.8,3.3,12.2,13.1,9.8,2.3-.6,2.8-2.1,2.8-4.1,0-4.7.2-9.3,0-14-.1-3.6,1.4-5.1,5-5,16.1.2,13.9-1.8,14,13.6,0,14.3,0,28.6,0,42.9,0,4.5-1.2,6.7-6.2,6.6-14.9-.3-12.7,1.1-12.9-12.8v-1.5c-.2-11.7,1.9-10.5-11.2-10.6-3.5,0-4.7,1.5-4.6,4.8.1,5,0,10,0,15,0,3.7-1.6,5.1-5.1,5-16.6,0-13.8,1.3-14.1-13,0-6.2,0-12.3,0-18.5h0Z"/>
      <path class="st0" d="M421.1,635.5c.2,10.2-2.2,19.7-10.7,26.2-9.7,7.4-20.7,7.9-31.7,3.6-10.8-4.2-15.5-13.2-16.7-24.1-1.1-10.3-.1-20.4,7-28.8,7.8-9.1,21.3-12.2,33.9-7.7,11.7,4.2,16.7,13.5,18.2,25.2.2,1.8,0,3.7,0,5.5h0ZM401.8,635.2c.3-3.8-.2-7.8-1.3-11.7-1.2-4.3-3.8-7.3-8.8-7.3-5,0-7.8,2.8-8.9,7.2-2.1,7.8-2.2,15.8,0,23.7,1.2,4.5,4,7,9,7,5.1,0,7.6-3,8.8-7.3,1-3.7,1.6-7.5,1.3-11.5h0Z"/>
      <path class="st0" d="M148.6,635.4c.2-2.8.1-5.7.7-8.4,3-16.1,14.8-25,31.6-24,15.1.8,25.9,11.7,27.2,27.4.7,8,0,16-4,23.3-6.4,11.6-19.5,16.7-34,13.3-11.9-2.8-20.4-13.1-21.2-26-.1-1.8,0-3.7,0-5.5,0,0-.2,0-.2,0h0ZM168.2,635c-.3,4.4.2,8.7,1.5,12.8,1.3,4.2,4,6.2,8.5,6.3,4.5,0,7.5-1.9,8.7-6,2.5-8.5,2.6-17.1,0-25.6-1.3-4.2-4.3-6.2-8.6-6.2-4.4,0-7.1,2.3-8.5,6.4-1.4,4-1.8,8.1-1.5,12.3h0Z"/>
      <path class="st0" d="M966.8,635.5c0-8.7.1-17.3,0-26,0-4,1.2-5.7,5.4-5.7,12.2.2,24.3.2,36.5,0,4,0,5.6,1.3,5.6,5.5,0,8.7.2,8.7-8.8,8.7-5.3,0-10.7.1-16,0-3.8-.1-4.3,2.1-4.3,5.1s.7,4.8,4.2,4.7c3.3-.1,6.7,0,10,0,3.1-.1,4.7,1.2,4.6,4.4,0,1.8,0,3.7,0,5.5,0,2.9-1.5,4.2-4.3,4.2s-7,.1-10.5,0c-3.6,0-3.9,2.2-3.9,5,0,2.7.2,5.1,3.8,5,6.8,0,13.7.1,20.5,0,4,0,5.9,1.5,5.6,5.6-.1,1.7,0,3.3,0,5,0,2.9-1.4,4.3-4.3,4.3-13.3,0-26.6,0-40,0-3.4,0-4-2.1-4-4.9,0-8.8,0-17.7,0-26.5h0Z"/>
      <path class="st0" d="M1260.4,602.8c7,.2,13.6,1.7,19.1,6.2,4.1,3.3,4,4.4.1,7.6-1,.8-2.2,1.6-3.1,2.5-2.3,2.5-4.4,2.8-7.2.4-3.4-2.9-7.7-2.8-11.9-2.4-1.9.2-3.7.9-4,3.1-.3,2.2,1.5,3.4,3.2,3.9,3.7,1.1,7.4,1.8,11.1,2.8,5.7,1.5,11.3,3.1,15.2,8,5.9,7.5,4.5,20-2.9,26.3-11.1,9.4-33.5,8.7-44-1.5-3.9-3.8-3.9-4.5.4-8,.9-.7,1.8-1.4,2.7-2.2,2.7-2.6,5.1-2.9,8.1,0,4.1,4.1,9.4,4.8,14.9,4,2.5-.4,5.2-1.1,5.5-4.2.2-3-2.4-3.7-4.7-4.3-4.8-1.4-9.7-2.3-14.4-4-9.5-3.2-13.6-8.7-13.7-17.4,0-8.7,5.2-15.7,13.8-18.8,3.8-1.3,7.7-2.1,11.8-2h0Z"/>
      <path class="st0" d="M57.5,602.8c7.3.2,14.1,1.9,19.9,6.8,2.6,2.2,3.1,4.2,0,6.4-1.3,1-2.8,2-3.9,3.2-2.4,2.6-4.4,2.7-7.2.3-3.4-2.9-7.7-2.8-11.9-2.4-1.9.2-3.7.9-4,3.1-.2,2.2,1.5,3.4,3.3,3.9,4.5,1.3,9,2.2,13.5,3.4,8.6,2.4,15.3,6.6,16.3,16.6.7,7.4-1.7,13.5-7.6,18-11,8.5-32.8,7.2-42.9-2.4-4-3.8-4-4.7.3-8,1.2-.9,2.5-1.7,3.5-2.8,2.4-2.3,4.5-2,6.8.3,4.4,4.4,10,5.1,15.8,4.3,2.4-.3,4.7-1.4,5-4.2.3-2.8-2.1-3.6-4.1-4.2-4.8-1.4-9.7-2.4-14.5-3.9-9.8-3.2-14.2-8.9-14.2-17.6,0-8.9,5.4-15.9,14.4-19,3.7-1.2,7.4-2,11.3-1.9h0Z"/>
      <path class="st0" d="M1100.3,666.9c-9.3,0-9.6,1-11.8-8.2-.7-2.7-2.3-3.9-5-3.7-2.2.1-4.4.3-6.5,0-6.9-1-11.5.8-13,8.4-.7,3.4-12.3,5.1-14.4,2.5-1.1-1.2-.3-2.6,0-3.8,6.2-18.3,12.3-36.6,18.5-54.8.1-.3.2-.7.4-.9,4.4-5.1,10.3-1.6,15.4-2.5,2.5-.4,5,0,6,3.1,6.3,18.6,12.7,37.1,19.2,55.7,1,2.8.1,4.2-2.8,4.2h-6ZM1078,624.9c-.3,0-.7-.2-1-.2-1.4,4.2-2.8,8.5-4.3,12.7-.4,1.2-.6,2.6.8,3,2.6.8,5.3.9,7.8,0,1.4-.5.7-2,.4-3.1-1.2-4.1-2.5-8.3-3.8-12.4h0Z"/>
      <path class="st0" d="M91.8,635.1c0-8.8,0-17.7,0-26.5,0-2.6.5-4.7,3.8-4.6,11.3.2,22.7-1.1,33.9.8,10.1,1.6,15.4,7.9,15.8,17.6.4,10-4.6,16.7-14.6,19.2-5,1.3-10.2,1.8-15.4,1.5-4-.3-5.3,1.4-5.2,5.3.2,4.7,0,9.3,0,14,0,3.1-1.2,4.6-4.4,4.6-17.4,0-13.7,1.6-14-12.9-.2-6.3,0-12.7,0-19h0ZM115.7,629.9c4.6,0,8.5-.1,9.8-5,1.3-4.9-2.2-7.9-9.2-7.9-6.1,0-6,.2-6.3,6.6-.2,4.7,1.2,7.2,5.6,6.2Z"/>
      <path class="st0" d="M428,635.5c0-8.7.1-17.3,0-26,0-4,1.5-5.7,5.6-5.6,12.5.2,25,.1,37.5,0,3.9,0,5.5,1.5,5.2,5.3-.1,1.3-.1,2.7,0,4,.3,3.8-1.6,5-5.1,4.9-6.3-.1-12.7,0-19,0-3.5,0-5.1,1-5.2,4.8,0,4,1.5,5.5,5.3,5.2,2.3-.2,4.7,0,7,0,6.8,0,6.9.1,6.9,7.1,0,4.7-2.4,7-7.3,7.1-11.8,0-11.7,0-11.8,12-.1,13.9,2,12.6-12.9,12.8-4.9,0-6.4-2-6.2-6.6.2-8.3,0-16.7,0-25h0Z"/>
      <path class="st0" d="M870.8,603.9c7,0,14,.2,21,0,5.4-.2,5.2,3.3,5.2,7,0,3.5,0,7-5.1,6.4-.2,0-.3,0-.5,0-7.6.2-11.3,4-11.3,11.5,0,10.8-.1,21.6,0,32.5,0,4.4-1.7,5.9-5.9,5.8-15.5-.2-13.2,1.2-13.3-12.9,0-10.5-.2-21,0-31.5,0-4.1-1.3-5.9-5.4-5.5-1.5.2-3,0-4.5,0-6.8,0-7-.4-7.1-7.5,0-4.2,1.4-6.1,5.8-5.9,7,.2,14,0,21,0h0Z"/>
      <path class="st0" d="M302.2,603.9c7,0,14,.2,21,0,5.5-.2,5,3.4,5,7s0,6.4-5,6.5c-12,.1-12,.3-12,12.2s-.1,21.3,0,32c0,4.2-1.5,5.6-5.6,5.5-15.5-.2-12.7,1.3-12.9-12.5-.1-10,0-20,0-30,0-4.8-2.5-7.2-7.5-7.2-1,0-2-.1-3,0-4.9.7-6.9-1.2-6.6-6.4.4-6.8.2-7,7-7,6.5,0,13,0,19.5,0h0Z"/>
      <path class="st0" d="M1203,603.9c7,0,14,.2,21,0,5.5-.2,5.1,3.3,5.1,7,0,3.6,0,6.5-5.1,6.5-11.9.1-11.9.3-11.9,12.3s-.1,21.3,0,32c0,3.8-1.3,5.4-5.2,5.4-15.9-.2-13,1.4-13.2-12.8-.2-10.5-.2-21,0-31.5,0-4-1.1-6-5.3-5.5-1.2.1-2.3,0-3.5,0-8,0-10.1-2.8-8.1-10.6.7-2.7,2.7-2.7,4.7-2.7,7.2,0,14.3,0,21.5,0h0Z"/>
      <path class="st0" d="M1292.9,592.5c0-1.2-.1-2.3,0-3.5.3-2.7-1.3-6.3,2.1-7.6,3.6-1.4,7.6-1.2,11.1.8,2.4,1.4,4,4.2,2.6,6.3-2.6,3.9-.6,7.2,0,10.8.3,1.6,1.6,3.9-1.2,4.5-2.4.5-3-1.6-3.5-3.4-.3-1.1-.5-2.3-.9-3.4-.6-1.3-1.7-2-3.2-1.8-1.4.2-1.8,1.3-1.9,2.6,0,.7,0,1.3-.1,2-.2,1.8,0,4.1-2.7,3.9-2.6-.2-2.2-2.5-2.3-4.3,0-2.3,0-4.7,0-7h0Z"/>
    </g>
  </g>
</svg>