<?xml version="1.0" encoding="UTF-8"?>
<svg id="Layer_2" xmlns="http://www.w3.org/2000/svg" viewBox="0 0 1320 695">
  <g id="Layer_1-2" data-name="Layer_1">
    <g>
      <path d="M1,262c37.5.02,75,.03,112.49.05,8.42,0,8.2.02,8.6,8.2,1.51,30.09,3.21,60.17,4.77,90.25.78,14.96,1.37,29.93,2.11,44.89.59,11.95,1.27,23.89,1.93,36,2.39-.5,2.49-2.24,3.02-3.47,23.07-53.19,46.09-106.4,69.13-159.61.93-2.14,2.29-4.17,2.81-6.39,1.98-8.42,7.33-10.17,15.46-10.06,32.99.44,65.99.25,98.99.11,4.63-.02,7,.91,7.09,6.22.16,10.31,1.11,20.6,1.52,30.91,1.15,29.61,2.17,59.23,3.29,88.85.6,15.8,1.27,31.6,1.98,47.4.09,2.04-.43,4.31,1.77,6.44,4.99-11.36,9.87-22.43,14.71-33.52,20.61-47.17,41.24-94.34,61.75-141.56,1.5-3.46,3.62-4.71,7.24-4.7,39.66.07,79.33.03,118.99.06,5.45,0,5.96.86,3.35,5.85-20.62,39.42-41.33,78.79-61.93,118.21-14.58,27.91-29,55.91-43.56,83.83-18.94,36.34-37.98,72.64-56.88,109.01-1.61,3.09-3.65,4.25-7.08,4.24-39.16-.08-78.33-.11-117.49.03-4.63.02-5.98-1.67-6.08-6.13-.59-27.3-1.18-54.61-2.23-81.9-1.16-30.11-2.33-60.23-2.97-90.36-.05-2.13-.01-4.31-1.5-6.61-3.09,4.63-4.75,9.67-6.87,14.44-22.35,50.42-44.61,100.87-66.88,151.32-2.15,4.88-4.38,9.73-6.38,14.67-1.29,3.19-3.29,4.55-6.83,4.54-39-.09-78-.11-116.99.02-4.32.01-5.9-1.78-6.29-5.78-3.36-34.79-6.73-69.58-10.22-104.36-2.81-27.99-5.85-55.95-8.65-83.94-2.87-28.65-5.39-57.34-8.44-85.97-1.14-10.73-1.39-21.58-3.74-32.18v-9Z"/>
      <path d="M623,695c-9.38-1.32-18.81-2.32-28.11-4.01-23.87-4.34-46.5-11.8-65.53-27.67-17.23-14.37-26.65-32.93-29.34-55.03-.58-4.78-.6-9.63-1.06-14.43-.44-4.64,1.6-6.02,6.09-6,26.66.15,53.32.08,79.98.08,10.16,0,20.33.13,30.49-.07,4.09-.08,5.43,1.43,5.64,5.5.89,16.97,9.51,26.29,26.4,28.3,7.42.88,15.01,1.07,22.42-.3,16.23-3,26.39-13.31,32.66-27.99,6.87-16.07,9.28-33.33,13.2-50.18.71-3.06,1.32-6.14,2.21-10.32-3.15,2.72-5.53,4.8-7.93,6.85-19.47,16.6-42.15,24.23-67.58,24.5-26.53.27-51.73-4.63-74.5-18.89-29.84-18.69-46.15-46.59-50.71-80.65-6.97-52.06,3.6-100.94,32.68-144.94,22.36-33.83,53.23-56.32,93.9-63.07,28.56-4.74,56.78-3.45,83.5,9.44,15.48,7.47,27.28,18.89,35.68,33.86.55.97.78,2.23,2.87,2.89,1.3-6.31,2.63-12.55,3.86-18.8,1.13-5.72,2.24-11.44,3.2-17.19.56-3.35,2.18-4.84,5.69-4.83,36.16.07,72.32.07,108.48,0,4.74-.01,4.99,2.2,4.19,6.06-11.01,53.35-21.84,106.73-32.87,160.08-9.68,46.82-18.38,93.84-29.41,140.37-5.48,23.11-13.13,45.45-26.37,65.5-17.45,26.44-42.48,42.17-72.27,51.11-17.31,5.2-35.05,7.96-53.07,9.01-1.47.08-2.92.56-4.37.86h-50ZM746.9,392.86c0-3.66.26-7.35-.05-10.99-1.18-14.02-5.98-26.25-19.43-32.71-13.26-6.37-27.34-6.95-41.45-2.9-14.73,4.24-25.55,13.8-32.63,27.02-13.71,25.61-19.55,52.79-12.22,81.5,4.05,15.85,13.98,27.26,30.85,29.71,21.14,3.08,39.4-3.42,52.82-20.47,16.37-20.79,21.67-45.29,22.1-71.16Z"/>
      <path d="M1320,471c-1.54,10.35-2.45,20.8-4.77,31.04-6.32,27.88-17.91,52.91-38.69,73.16-6.24,6.08-12.82,9.23-22.09,9.11-40.49-.55-80.99-.23-121.49-.26-1.9,0-3.9.39-6.63-1.09,40.3-16.84,73.06-41.67,96.37-77.87-.33-.39-.65-.78-.98-1.17-4.72,4.07-9.4,8.21-14.17,12.21-21.5,18.03-43.86,34.81-69.17,47.25-13.65,6.71-27.66,12.37-42.94,14.33-4.91.63-9.68.33-14.36-.93-11.98-3.23-17.24-13.69-12.99-25.76,3.95-11.21,11.23-20.37,18.68-29.37,5.42-6.55,11.46-12.53,17.37-18.65,2.62-2.71,4.71-2.91,7.71-.83,3.35,2.33,6.99,4.25,11.13,5.43-3.36-2.54-6.67-5.17-10.11-7.59-2.39-1.68-2.48-3.11-.34-5.12,25.44-23.97,53.83-42.5,89.01-48.65,10.81-1.89,21.54-1.98,32.19.88,1.56.42,3.77.63,4.16,2.34.44,1.9-1.8,2.56-3.06,3.52-22.48,17.2-45,34.37-67.14,52.28,1.69-.99,3.39-1.94,5.05-2.96,23.12-14.26,46.23-28.52,69.35-42.78,6.69-4.13,7.97-3.74,10.24,3.94,3.61,12.24,1.83,24.44-.76,36.56-4.34,20.32-12.11,39.46-20.3,58.45-.25.59-.45,1.2-.37,1.96,5.13-6.82,9.02-14.39,12.95-21.9,10.47-19.97,20.09-40.31,23.41-62.92,1.29-8.8,1.58-17.68-2.7-25.91-1.81-3.49.69-4.42,2.76-5.71,13.61-8.41,27.24-16.78,40.86-25.17.99-.61,2-1.2,2.98-1.83q4.85-3.09.22-6.61c-12.59-9.56-8.61-8.82-20.59-.01-10.87,7.99-21.56,16.24-32.11,24.65-3.61,2.88-5.56,2.49-8.31-1.17-37.93-50.49-76.02-100.87-114.04-151.28-11.34-15.03-22.55-30.15-33.98-45.11-2.27-2.97-2.22-4.41,1.17-6.47,34.11-20.72,70.83-33.73,110.55-38.35,13.91-1.62,27.78-3.17,41.81-2.91,2.76.05,4.71.46,5.43,3.72,10.9,49.34,26.8,97.32,39.72,146.11,6.91,26.1,13.04,52.37,16.64,79.17.86,6.41,1.57,12.85,2.35,19.28v33Z"/>
      <path d="M1266,1c6.9,1.64,13.92.35,20.87.79.96.06,2.18-.26,2.71.75.57,1.08-.51,1.8-1.1,2.56-17.14,22.18-25.97,47.82-31.21,74.94-1.24,6.44-1.35,6.55-6.97,3.3-32.87-19-68.06-29.59-106.26-28-18.51.77-36.53,5.29-54.56,9.36-21.12,4.76-41.93,10.76-63.23,14.79-12.14,2.29-22.77-.88-32.93-6.82-7.47-4.37-14.7-9.16-22.05-13.73-2.14-1.33-3.53-2.76-2.57-5.67,5.91-17.83,13.48-34.79,25.43-49.51.83-1.02,1.92-1.83,2.89-2.74,89.67,0,179.33,0,269,0Z"/>
      <path d="M1320,599c-4.03,7.38-9.31,12.99-18.49,13.16-10.18.19-18.42-6.45-20.28-16.41-1.7-9.07,3.7-18.68,12.44-22.16,9.16-3.64,18.88-.25,24.18,8.46.78,1.28,1.44,2.62,2.16,3.94v13ZM1315.8,592.13c-.02-8.59-6.69-15.76-14.74-15.85-8.2-.09-15.03,7.25-14.97,16.06.07,9.3,6.27,15.67,15.17,15.57,8.36-.09,14.56-6.83,14.54-15.78Z"/>
      <path d="M1235.14,429.8c-2.89-.23-5.46-.46-8.03-.63-23.69-1.6-45.41,5.52-66.52,15.16-21.98,10.04-41.71,23.64-60.24,39.01-3.39,2.81-5.73,3.17-9.41.35-23.7-18.11-47.56-36-71.4-53.92-13.05-9.8-26.25-19.4-39.18-29.35-3.6-2.77-5.67-1.96-8.24,1.14-8.61,10.39-8.66,10.31,2.85,17.3,37.16,22.58,74.3,45.18,111.45,67.76,5.42,3.29,5.46,3.64.43,7.97-16.33,14.06-31.51,29.24-44.3,46.63-7.53,10.24-14.27,20.98-15.82,34.06-.06.5-.22.98-.27,1.47q-.67,7.3-7.97,7.3c-13.67,0-27.35.49-40.99-.13-34.81-1.58-69.63-.3-104.43-.77-5.68-.08-6.02-.41-4.83-6.08,11.33-54.47,22.71-108.94,34.04-163.42,9.91-47.62,19.79-95.25,29.65-142.88,1.81-8.72,1.75-8.73,10.9-8.74,9.67,0,19.33-.09,29,.03,3.95.05,5.44-1.15,4.43-5.36-1.9-7.93-3.56-15.93-4.99-23.96-.64-3.55-2.38-4.69-5.77-4.61-6.16.14-12.33.06-18.5.02-6.06-.04-6.45-.49-5.24-6.32,4.83-23.33,9.65-46.66,14.57-69.97,1.11-5.25,1.73-10.46,1.58-15.85-.31-11.33-.09-22.65,1.01-33.94.21-2.15-.14-5.31,1.62-5.98,2.52-.95,3.64,2.33,5.02,3.98,9.69,11.65,19.4,23.3,28.74,35.24,3.69,4.72,7.61,6.86,13.84,6.75,22.16-.41,44.33-.17,66.49-.14,6.53,0,6.82.55,5.46,6.99-4.64,22-9.13,44.02-13.82,66.01-.94,4.43-.08,7.84,2.86,11.41,54.58,66.19,109.05,132.47,163.53,198.74,1.03,1.25,2.21,2.45,2.5,4.7Z"/>
      <path d="M215.76,635.25c0-8.49.17-16.99-.07-25.48-.12-4.24,1.22-6.11,5.67-5.89,11.13.53,22.33-.97,33.4,1.03,11.26,2.04,17.03,9.64,15.49,20.03-.73,4.95-3.24,8.79-7.55,11.17-2.82,1.56-3.19,3.24-1.97,6.05,2.85,6.57,5.4,13.26,8.18,19.86,1.43,3.4.62,5.1-3.22,4.93-.33-.01-.67,0-1,.01q-14.3.37-19.03-12.96c-1.17-3.29-2.42-6.56-3.52-9.88-.87-2.62-2.8-2.98-5.15-2.82-2.94.2-2.79,2.35-2.8,4.36-.04,5.5-.13,11,0,16.49.08,3.4-1.31,4.84-4.7,4.82-16.74-.09-13.41,1.48-13.71-12.73-.13-6.33-.02-12.66-.02-18.99ZM241.65,616.99c0,.06,0,.12,0,.18-1.49,0-2.99-.04-4.48.01-2.43.09-3.15,1.74-2.91,3.75.31,2.6-1.65,6.45,1.91,7.44,3.91,1.08,8.28.99,12.07-1.36,1.84-1.14,2.74-2.87,2.45-5.08-.32-2.42-1.84-3.93-4.09-4.49-1.59-.39-3.29-.32-4.94-.46Z"/>
      <path d="M1136.86,603.92c5.33.25,11.66-.45,17.95.78,7.48,1.46,13.99,4.36,15.92,12.39,1.96,8.16-.06,15.27-7.98,19.62-2.81,1.54-1.77,3.5-.96,5.53,2.66,6.64,5.23,13.33,8.06,19.9,1.57,3.65.38,4.95-3.27,4.81-.33-.01-.67,0-1,.01q-14.22.32-19.06-13.01c-1.14-3.13-2.29-6.26-3.26-9.44-.85-2.8-2.76-3.46-5.38-3.2-2.95.29-2.67,2.49-2.69,4.46-.05,5.33-.14,10.66.02,15.98.11,3.5-1.05,5.26-4.81,5.23-16.63-.12-13.43,1.46-13.61-12.81-.19-14.82.08-29.64-.11-44.45-.05-4.29,1.31-6.1,5.72-5.85,4.48.26,8.99.06,14.46.06ZM1142.63,616.99c0,.06,0,.12,0,.19-1.49,0-2.99-.04-4.48.01-2.43.09-3.14,1.75-2.9,3.75.3,2.6-1.63,6.45,1.92,7.43,3.91,1.08,8.28.99,12.05-1.37,1.82-1.14,2.77-2.86,2.45-5.07-.35-2.39-1.83-3.93-4.09-4.49-1.59-.39-3.29-.32-4.94-.46Z"/>
      <path d="M902.91,635.44c0-8.65.13-17.31-.05-25.96-.09-4.04,1.33-5.69,5.49-5.61,16.1.31,13.52-1.88,13.71,13.28.12,9.76,3.3,12.17,13.07,9.78,2.34-.57,2.75-2.1,2.76-4.06.02-4.66.15-9.32,0-13.98-.11-3.64,1.42-5.06,5.04-5.01,16.11.22,13.9-1.84,14.01,13.62.1,14.31-.09,28.63.09,42.94.06,4.55-1.24,6.68-6.19,6.59-14.87-.26-12.71,1.13-12.91-12.79,0-.5,0-1,0-1.5-.19-11.66,1.87-10.46-11.25-10.61-3.53-.04-4.7,1.47-4.61,4.8.13,4.99-.08,9.99.04,14.98.09,3.66-1.59,5.06-5.11,5.05-16.63-.05-13.83,1.34-14.06-13.05-.1-6.16-.02-12.32-.01-18.47Z"/>
      <path d="M421.14,635.46c.16,10.24-2.17,19.69-10.68,26.2-9.68,7.41-20.66,7.94-31.7,3.64-10.76-4.2-15.54-13.22-16.73-24.12-1.12-10.3-.15-20.41,6.97-28.75,7.76-9.1,21.33-12.17,33.9-7.65,11.71,4.21,16.7,13.53,18.21,25.2.23,1.8.03,3.65.03,5.48ZM401.78,635.21c.33-3.85-.24-7.81-1.34-11.66-1.25-4.35-3.83-7.31-8.83-7.35-5-.05-7.79,2.81-8.94,7.19-2.06,7.85-2.18,15.8,0,23.67,1.24,4.47,4,7.05,9.01,7,5.07-.05,7.6-2.95,8.78-7.32,1-3.69,1.64-7.48,1.32-11.54Z"/>
      <path d="M148.58,635.37c.21-2.81.15-5.68.66-8.43,3.02-16.07,14.8-24.98,31.56-24.04,15.07.85,25.94,11.69,27.22,27.4.66,8.05.07,15.99-3.96,23.27-6.44,11.63-19.51,16.7-34.04,13.26-11.93-2.82-20.37-13.14-21.18-25.96-.12-1.82-.02-3.66-.02-5.49-.08,0-.16,0-.25-.01ZM168.22,634.96c-.3,4.37.18,8.67,1.47,12.84,1.28,4.15,4.01,6.22,8.51,6.26,4.47.04,7.49-1.89,8.7-6.02,2.47-8.49,2.57-17.07,0-25.6-1.28-4.23-4.32-6.19-8.62-6.2-4.4-.01-7.14,2.35-8.52,6.4-1.37,3.99-1.8,8.12-1.53,12.31Z"/>
      <path d="M966.83,635.52c0-8.66.13-17.32-.06-25.97-.09-3.99,1.19-5.74,5.41-5.68,12.15.17,24.31.16,36.46,0,4.01-.05,5.64,1.29,5.62,5.47-.04,8.72.15,8.73-8.81,8.74-5.33,0-10.66.13-15.98-.02-3.82-.11-4.26,2.06-4.26,5.11,0,2.98.71,4.82,4.16,4.67,3.32-.14,6.66.08,9.99-.03,3.14-.11,4.68,1.2,4.59,4.38-.05,1.83-.03,3.66-.03,5.49.01,2.91-1.48,4.23-4.33,4.23-3.5,0-6.99.11-10.49.06-3.6-.05-3.88,2.23-3.87,4.99.01,2.72.19,5.07,3.82,5.05,6.83-.04,13.65.13,20.48,0,4.02-.08,5.92,1.5,5.58,5.61-.14,1.65-.08,3.33-.05,4.99.05,2.92-1.43,4.29-4.27,4.29-13.32.01-26.64,0-39.96.03-3.42,0-4.05-2.07-4.02-4.94.07-8.82.02-17.65.02-26.47Z"/>
      <path d="M1260.41,602.82c6.97.19,13.55,1.65,19.13,6.15,4.05,3.27,4.04,4.37.12,7.61-1.03.85-2.19,1.57-3.08,2.54-2.31,2.54-4.4,2.81-7.2.42-3.4-2.89-7.7-2.82-11.92-2.39-1.94.2-3.72.88-3.97,3.09-.26,2.24,1.46,3.37,3.22,3.89,3.66,1.09,7.42,1.85,11.12,2.82,5.68,1.48,11.34,3.14,15.17,8.01,5.92,7.54,4.46,20.01-2.9,26.29-11.07,9.44-33.51,8.68-44.01-1.49-3.95-3.83-3.92-4.5.38-8.04.9-.74,1.85-1.42,2.7-2.22,2.74-2.59,5.13-2.86,8.06.1,4.06,4.11,9.39,4.8,14.88,3.95,2.47-.38,5.22-1.12,5.46-4.22.24-3.02-2.45-3.7-4.66-4.34-4.79-1.39-9.72-2.35-14.44-3.95-9.52-3.22-13.64-8.69-13.65-17.43,0-8.66,5.15-15.73,13.8-18.8,3.79-1.35,7.71-2.12,11.77-2.01Z"/>
      <path d="M57.5,602.82c7.34.19,14.14,1.91,19.9,6.82,2.56,2.19,3.1,4.2.05,6.38-1.35.97-2.75,1.95-3.86,3.16-2.36,2.56-4.41,2.72-7.19.35-3.4-2.89-7.71-2.81-11.92-2.36-1.94.21-3.72.93-3.95,3.13-.23,2.22,1.51,3.37,3.27,3.87,4.48,1.28,9.05,2.21,13.54,3.44,8.6,2.36,15.32,6.63,16.27,16.56.7,7.37-1.73,13.53-7.55,18.05-10.99,8.55-32.81,7.24-42.87-2.4-3.98-3.81-3.95-4.65.32-8.04,1.18-.93,2.48-1.73,3.55-2.76,2.43-2.35,4.46-2.04,6.8.29,4.39,4.37,9.95,5.13,15.79,4.26,2.36-.35,4.69-1.41,4.97-4.18.28-2.78-2.06-3.62-4.14-4.22-4.79-1.4-9.71-2.39-14.45-3.94-9.81-3.21-14.24-8.89-14.16-17.61.08-8.87,5.42-15.94,14.36-18.95,3.65-1.23,7.4-1.98,11.29-1.86Z"/>
      <path d="M1100.33,666.92c-9.28-.04-9.57,1.02-11.77-8.15-.65-2.7-2.27-3.86-5.04-3.7-2.16.12-4.36.28-6.48-.04-6.87-1.01-11.46.85-12.99,8.41-.68,3.36-12.26,5.13-14.44,2.53-1.05-1.25-.33-2.56.08-3.78,6.16-18.28,12.35-36.56,18.54-54.84.11-.31.18-.68.39-.92,4.43-5.06,10.27-1.59,15.39-2.46,2.52-.43,4.98.02,6.03,3.09,6.35,18.57,12.74,37.13,19.15,55.68.96,2.78.11,4.15-2.85,4.16-2,0-3.99,0-5.99,0ZM1078.01,624.93c-.32-.07-.65-.15-.97-.22-1.42,4.23-2.85,8.47-4.26,12.71-.39,1.17-.61,2.6.75,3.03,2.56.8,5.31.89,7.84-.02,1.44-.52.73-2.03.42-3.1-1.22-4.14-2.52-8.26-3.78-12.39Z"/>
      <path d="M91.77,635.1c0-8.83.03-17.65-.01-26.48-.01-2.64.54-4.71,3.75-4.64,11.3.24,22.67-1.07,33.9.76,10.08,1.64,15.44,7.91,15.81,17.64.37,10.03-4.61,16.7-14.58,19.21-5.02,1.26-10.18,1.82-15.36,1.47-3.97-.27-5.34,1.43-5.16,5.27.22,4.65-.04,9.32.07,13.98.07,3.11-1.15,4.64-4.36,4.63-17.37-.03-13.7,1.57-14.04-12.87-.15-6.32-.02-12.65-.02-18.98ZM115.73,629.91c4.57.03,8.53-.12,9.79-4.95,1.29-4.94-2.17-7.86-9.15-7.87-6.07,0-6.01.17-6.27,6.64-.19,4.68,1.15,7.15,5.63,6.18Z"/>
      <path d="M428.05,635.49c0-8.66.1-17.32-.04-25.98-.06-4,1.46-5.69,5.59-5.64,12.49.15,24.98.14,37.47,0,3.89-.04,5.55,1.46,5.18,5.32-.13,1.32-.12,2.67,0,3.99.33,3.77-1.56,4.98-5.07,4.91-6.33-.12-12.66.09-18.99-.06-3.5-.08-5.15,1-5.18,4.82-.03,3.95,1.53,5.46,5.34,5.2,2.32-.16,4.66-.03,6.99-.02,6.81.05,6.9.14,6.89,7.06q0,7.04-7.34,7.07c-11.81.04-11.73.04-11.83,12.03-.11,13.94,2.03,12.57-12.86,12.83-4.93.09-6.36-1.97-6.23-6.56.23-8.32.07-16.65.07-24.98Z"/>
      <path d="M870.78,603.93c6.99,0,13.99.17,20.97-.05,5.37-.17,5.22,3.29,5.24,6.96.02,3.55.04,6.97-5.07,6.4-.16-.02-.33,0-.5,0q-11.35.24-11.35,11.46c0,10.82-.13,21.64.06,32.46.08,4.36-1.67,5.89-5.9,5.84-15.46-.17-13.16,1.2-13.29-12.86-.1-10.49-.15-20.98.04-31.46.08-4.07-1.27-5.93-5.44-5.46-1.48.16-2.99.03-4.49.02-6.83-.03-7.02-.4-7.06-7.45-.02-4.2,1.42-6.08,5.82-5.93,6.98.23,13.98.06,20.97.06Z"/>
      <path d="M302.18,603.92c6.99,0,13.99.19,20.97-.05,5.54-.19,5,3.42,5.05,6.99.05,3.57.05,6.43-5.04,6.48-11.98.12-11.98.34-11.98,12.18,0,10.65-.14,21.31.07,31.95.08,4.17-1.53,5.58-5.56,5.53-15.51-.21-12.69,1.32-12.9-12.55-.15-9.98-.02-19.97-.03-29.96q0-7.24-7.48-7.25c-1,0-2.01-.11-2.99.02-4.92.66-6.9-1.18-6.61-6.37.38-6.81.18-6.96,7.04-6.98,6.49-.02,12.98,0,19.47,0Z"/>
      <path d="M1203,603.93c7,0,14.01.19,21-.07,5.51-.2,5.08,3.35,5.11,6.96.03,3.57.05,6.46-5.05,6.51-11.89.12-11.89.34-11.89,12.3,0,10.67-.11,21.33.05,32,.06,3.85-1.34,5.4-5.22,5.36-15.94-.19-12.99,1.42-13.19-12.78-.15-10.5-.17-21,.03-31.49.08-4.01-1.09-6.02-5.35-5.5-1.15.14-2.33.02-3.5.02-8.01,0-10.08-2.81-8.13-10.63.68-2.72,2.67-2.65,4.65-2.66,7.17-.05,14.33-.02,21.5-.02Z"/>
      <path d="M1292.92,592.52c0-1.17-.12-2.34.02-3.49.32-2.66-1.29-6.29,2.09-7.57,3.59-1.36,7.61-1.25,11.12.76,2.39,1.36,3.99,4.19,2.57,6.34-2.6,3.94-.57,7.22.08,10.82.29,1.58,1.63,3.9-1.18,4.5-2.39.51-2.97-1.6-3.51-3.39-.33-1.11-.46-2.3-.91-3.36-.57-1.35-1.69-2.04-3.22-1.77-1.41.25-1.78,1.35-1.93,2.56-.08.66-.06,1.33-.13,1.99-.2,1.78-.01,4.09-2.69,3.88-2.57-.2-2.22-2.51-2.29-4.28-.09-2.33-.02-4.66-.03-6.99Z"/>
    </g>
  </g>
</svg>